<?xml version="1.0" encoding="UTF-8" standalone="no"?>
<!-- Uploaded to: SVG Repo, www.svgrepo.com, Generator: SVG Repo Mixer Tools -->
<svg width="800px" height="800px" viewBox="0 0 64 64" version="1.1" xmlns="http://www.w3.org/2000/svg" xmlns:xlink="http://www.w3.org/1999/xlink">
    
    <title>cld-cloud-computer-network</title>
    <desc>Created with Sketch.</desc>
    <defs>

</defs>
    <g id="General" stroke="none" stroke-width="1" fill="none" fill-rule="evenodd">
        <g id="SLICES-64px" transform="translate(-720.000000, -200.000000)">

</g>
        <g id="ICONS" transform="translate(-715.000000, -195.000000)">
            <g id="cld-cloud-computer-network" transform="translate(720.000000, 200.000000)">
                <path d="M24,49 C24,50.657 22.657,52 21,52 L3,52 C1.343,52 0,50.657 0,49 L0,48 L24,48 L24,49 Z" id="Fill-519" fill="#CDCCD6">

</path>
                <path d="M19,48 L19,49 C19,50.656 17.657,52 16,52 L21,52 C22.657,52 24,50.656 24,49 L24,48 L19,48 Z" id="Fill-520" fill-opacity="0.25" fill="#6C6984">

</path>
                <polygon id="Fill-521" fill="#FFFFFF" points="2 48 22 48 22 36 2 36">

</polygon>
                <path d="M52,49 C52,50.657 50.657,52 49,52 L31,52 C29.343,52 28,50.657 28,49 L28,48 L52,48 L52,49 Z" id="Fill-522" fill="#CDCCD6">

</path>
                <path d="M47,48 L47,49 C47,50.656 45.657,52 44,52 L49,52 C50.657,52 52,50.656 52,49 L52,48 L47,48 Z" id="Fill-523" fill-opacity="0.25" fill="#6C6984">

</path>
                <polygon id="Fill-524" fill="#FFFFFF" points="30 48 50 48 50 36 30 36">

</polygon>
                <path d="M29.4346,2.9414 C28.5576,1.1974 26.7516,0.0004 24.6666,0.0004 C21.7206,0.0004 19.3326,2.3874 19.3326,5.3334 C16.3876,5.3334 13.9996,7.7204 13.9996,10.6674 C13.9996,13.6124 16.3876,16.0004 19.3326,16.0004 L31.3326,16.0004 C35.0156,16.0004 37.9996,13.0154 37.9996,9.3334 C37.9996,5.6514 35.0156,2.6674 31.3326,2.6674 C30.6736,2.6674 30.0366,2.7624 29.4336,2.9414 L29.4346,2.9414 Z" id="Fill-525" fill="#FFFFFF">

</path>
                <path d="M31.333,2.666 C30.932,2.666 30.542,2.713 30.159,2.781 C31.847,3.686 33,5.494 33,7.583 C33,10.575 30.637,13 27.723,13 L18.223,13 C16.207,13 14.526,11.548 14.106,9.609 C14.038,9.951 14,10.305 14,10.666 C14,13.612 16.388,16 19.333,16 L31.333,16 C35.016,16 38,13.016 38,9.333 C38,5.651 35.016,2.666 31.333,2.666" id="Fill-526" fill-opacity="0.25" fill="#6C6984">

</path>
                <path d="M24,49 C24,50.657 22.657,52 21,52 L3,52 C1.343,52 0,50.657 0,49 L0,48 L24,48 L24,49 Z" id="Stroke-527" stroke="#676883" stroke-width="2" stroke-linecap="round" stroke-linejoin="round">

</path>
                <polyline id="Stroke-528" stroke="#676883" stroke-width="2" stroke-linecap="round" stroke-linejoin="round" points="2 48 2 36 22 36 22 48">

</polyline>
                <path d="M52,49 C52,50.657 50.657,52 49,52 L31,52 C29.343,52 28,50.657 28,49 L28,48 L52,48 L52,49 Z" id="Stroke-529" stroke="#676883" stroke-width="2" stroke-linecap="round" stroke-linejoin="round">

</path>
                <polyline id="Stroke-530" stroke="#676883" stroke-width="2" stroke-linecap="round" stroke-linejoin="round" points="30 48 30 36 50 36 50 48">

</polyline>
                <polyline id="Stroke-531" stroke="#676883" stroke-width="2" stroke-linecap="round" stroke-linejoin="round" points="12 32 12 26 40 26 40 32">

</polyline>
                <path d="M26,20 L26,26" id="Stroke-532" stroke="#676883" stroke-width="2" stroke-linecap="round" stroke-linejoin="round">

</path>
                <path d="M29.4346,2.9414 C28.5576,1.1974 26.7516,0.0004 24.6666,0.0004 C21.7206,0.0004 19.3326,2.3874 19.3326,5.3334 C16.3876,5.3334 13.9996,7.7204 13.9996,10.6674 C13.9996,13.6124 16.3876,16.0004 19.3326,16.0004 L31.3326,16.0004 C35.0156,16.0004 37.9996,13.0154 37.9996,9.3334 C37.9996,5.6514 35.0156,2.6674 31.3326,2.6674 C30.6736,2.6674 30.0366,2.7624 29.4336,2.9414 L29.4346,2.9414 Z" id="Stroke-533" stroke="#676883" stroke-width="2" stroke-linecap="round" stroke-linejoin="round">

</path>
            </g>
        </g>
    </g>
</svg>